<svg xmlns="http://www.w3.org/2000/svg" width="71" height="78.9" viewBox="0 0 710 789"><path fill="#fdd5a6" d="M186 720c14-6 26-23 34-54l4-16c1-10-15-25-21-35-22-30-39-15-43-18l-28-25c-9-8-30-23-32-7s28 39 24 45l-1 1c-4 0-11 0-13 5l-2 10c-1 3 0 7 2 9 1 1 1 3 0 4-3 1-4 4-4 8v11c0 3 2 7 5 8 2 1 3 4 2 6l-1 6c0 4 1 8 3 11a90 90 0 0 0 44 30"/><path fill="#fbbf88" d="M160 597l-28-25c-9-8-30-23-32-7s28 39 24 45l-1 1h12v-3a80 80 0 0 1 25-11zm52 123c2-9 2-18 0-26 0 0-25-6-28-28-5-43-13-33-19-34 4 11 5 24 2 36a30 30 0 0 1-12 22c-9 6-24 4-37 3 4 8 22 19 39 27"/><path fill="#815a37" d="M242 720l20-46s35-49 22-42c-24 21-61 8-61 8s8 53-69 80"/><path fill="#dcad84" d="M137 610c-3-6 1 15 13 21 7 3 16 3 23 1a44 44 0 0 1-36-22z"/><path fill="#163860" d="M422 728c3-59 4-121 4-121l-124 20a410 410 0 0 0-48 93l112 1 56 7"/><path fill="#0c233b" d="M251 720l32-69 16-23 3 7a642 642 0 0 0-37 85m119-67zm-2 2zm-4 3zm-34 33zm10-10zm-7 7l-1 2 1-2zm5-5l-2 2 2-2zm-3 3zm-7 8zm-5 5l-1 1 1-1zm-2 2zm5-5zm25-26zm4-4zm4-4zm-3 3zm7-6l-2 1 2-1zm-13 12zm-3 2l-1 2 1-2zm-2 3zm-2 2l-2 2 2-2zm-25 26zm0-2v-2zm0-4v-1zm0-3v-1zm-29-57zm1 6v2-2zm0-3v2-2zm3 17v2-2zm-2-10v2-2zm1 6v2-2zm0-3v2-2zm2 10v2-2zm1 3v2-2zm9 23l1 2-1-2zm4 6l1 2-1-2zm-5-9l1 2-1-2zm12 18zm-3-3zm-2-3zm-4-6l1 2-1-2zm-7-16l1 2-1-2zm-2-3l1 2-1-2zm-1-3l1 2-1-2zm4 10l1 2-1-2zm1 3l1 2-1-2zm16 23z"/><path fill="#dadad9" d="M380 639l-43 47-17-20s-7-35 0-52l4-8 59 7-3 26z"/><path fill="#fff" d="M414 582h18l-2 17-44 77-29-55-7-5-44 50c-5-16-7-32-6-48 1-10 0-18 7-22 1 0 64 42 107-14z"/><path fill="#159ad6" d="M345 623l-26 39a60 60 0 0 0 12 31l28-31v-39h-14z"/><path fill="#1580af" d="M342 628c5 4 11 5 17 2v-5l-14-1-3 4z"/><path fill="#815a37" d="M242 720c12-35 36-88 60-112l6 9a643 643 0 0 0-48 103h-18z"/><path fill="#c1c0bd" d="M359 624l2 36-2 2z"/><path fill="#815a37" d="M431 579l73-18c3 57 13 113 30 167H419l12-149z"/><path fill="#472a16" d="M431 595l15-2c1 23 9 45 22 64 0 0-36 14-44 27l34-4c-5 16-10 31-17 46h-21l11-131z"/><path fill="#693521" d="M424 594l13-10c0 23 7 46 18 66 0 0-27 18-31 34l38-6c-10 16-18 33-26 50h-19l7-134z"/><path fill="#c1c0bd" d="M318 655c5-5 17-23 17-23l-18 20 1 3z"/><path fill="#0c233b" d="M423 615l-37 61 36-63z"/><path fill="#1580af" d="M319 662l1-2a80 80 0 0 0 11 33c0-1-9-7-12-31z"/><path fill="#0c233b" d="M318 655l-12 11 12-14v3z"/><path fill="#159ad6" d="M368 617c0 6-7 10-16 10s-16-5-16-10c0-9 7-10 16-10s16 1 16 10z"/><path fill="#5b4026" d="M467 771c-10 2-20-19-20-19l27-12c1 0 3 29-7 31z"/><path fill="#fcd7a9" d="M418 684c-39 3-100 16-103 43-2 27 148 20 148 20l5-20c1-19-5-46-50-43z"/><path fill="#dbac83" d="M315 727v1zm108-43s28 3 35 17c5 8 7 17 5 26-6 17-33 20-51 20-33 0-83-11-97-20-2 15 52 36 95 39 28 2 30-18 68-12 3-9 4-18 4-27-1-21-11-48-59-43z"/><path fill="#815a37" d="M472 728a70 70 0 0 1-7 43c38 6 105-24 119-43l2-4c6-20-8-62-27-101a160 160 0 0 0-56-62l-17 106c-50 6-62 17-62 17 33-2 46 21 48 44z"/><path fill="#5b4026" d="M498 617l-9 50s-22-4-65 17c18-13 39-21 61-23 3-15 8-30 13-44z"/><path fill="#fdd5a6" d="M414 562l2 24a75 75 0 0 1-67 34c-18-1-42-8-44-18-2-8-2-16 0-24l109-16z"/><path fill="#cdad87" d="M407 597c-35 10-72 9-107-1l1-15 108-16-2 32z"/><ellipse cx="397" cy="570" fill="#5b4026" rx="105" ry="39"/><path fill="#f6f7f7" d="M222 521c-21-33-72 10-86 22s5-34 23-40c0 0-41-2-47 27-3-19 4-38 19-51 0 0-41 34-50 48l4-20-31 5s-8-79 46-94-4-7-4-7-16-29-64-17c0 0 21-164 120-176 0 0-9-35-44-28 0 0 5-18 20-18l-28-14s85-49 154 26c0 0 24-110 24-124s1-30-4-38c0 0 33 6 33 21 3-7 1-15-5-20 0 0 56 23 51 50l4-23s17 9 18 19 4-24 4-24 57 22 60 105c0 0 147-55 196 94l-37-7s29 12 33 31c0 0 45 12 45 124 0 0-11-46-45-52 0 0 50 21 53 126-10-9-22-16-35-21 0 0 37 23 23 82 0 0-6-15-35-18l4 11-22-11s-71 6-89 27c0 0-3-28-25-14l-283-1z"/><path fill="#fcd4a9" d="M550 472c-5 62-46 126-131 123-18 0-35 4-54 3-75-6-148 4-157-103l-2-5c-5-14-7-30-6-45 6-77 93-135 190-127 17 1 34 5 51 10 69 23 114 81 109 144z"/><path fill="#fbc18d" d="M314 325a217 217 0 0 1 127 2c70 24 115 82 110 144-2 28-22 120-124 124 0 0 138-93 20-195-40-33-85-58-133-75z"/><path fill="#e8e7e6" d="M294 459s4-29-16-26c5 2 7 8 5 13 0 0-11-33-54 0 0 0 14-5 19-2 0 0-19 2-20 12 0 0 8-2 11 1 0 0-12 10 5 23 0-1 28-26 50-21z"/><g fill="#232221"><ellipse cx="277" cy="499" rx="21" ry="14" transform="rotate(274.4 277 499)"/><ellipse cx="416" cy="497" rx="21" ry="14" transform="rotate(274.4 416 497)"/></g><path fill="#e8e7e6" d="M412 468s32 0 47 16c0 0 22-10-2-22 4-1 8-1 12 1 0 0 0-15-24-14 5-3 11-3 16-1 0 0-22-23-37-2 1-5 5-10 10-12-8 0-34-2-31 32l9 2z"/><path fill="#744e31" d="M472 728a70 70 0 0 1-7 43c38 6 105-24 119-43l2-4c-20 6-40 11-61 13-18-1-35-4-53-9z"/><path fill="#693521" d="M248 720a730 730 0 0 1 56-98c4-4 4-10 0-14l-47 36-1 15-11 9-10 52"/><path fill="#e8e7e6" d="M319 539c-20-16-82-28-75 72 0 0 4-16 14-15 0 0-4 25 9 30 0 0 6-25 16-19 0 0 18 30 35 32 0 0-4-21 7-22l17 25 16-28s11 13 4 18c10 0 18-7 19-16 0 0 19 7 15 23 9-6 14-16 14-27l16 20 4-33s26 10 26 21a50 50 0 0 0-15-48l26 5s-57-66-104-31c-8 6-17 14-44-7z"/><g fill="#dadbd9"><path d="M388 570s65 1 68 49c-1 0-25-44-68-49zm-70 69s-1-47 18-59c0 0-39 13-18 59zm77 1s11-32-7-43c0 0 33 9 7 43zm-53 2s16-35 13-51c3 3 4 7 5 11 1 9-1 23-18 40z"/><path d="M350 576s16 32 6 40l1 5c4 1 6 4 7 8 0 1 11-26-14-53zm-32 62s-28-43-5-62c0 0-40 33 6 64m-52-14s10-34 26-35c0 0-37-9-26 35z"/><path d="M245 611a28 28 0 0 1 28-17l8-4c-1 1-32-12-36 21zm88-49s-64-60-83 15c0 0 14-29 33-26 0 0-10 4-10 13 1 0 19-20 60-2zm24-4s47-30 82 4c-1 0-26-17-82-4z"/></g><path fill="#f6f7f7" d="M221 521s-2-102 23-102c0 0 11 18 19 19 2 0 0-52 29-64 0 0 92 51 106 30-3-2-36-20-32-35 2-8 74 0 98 77 5 4 17-11 22-31 8-37 21 69 21 71s10-2 18-11-4 57-7 64c18-12 31-12 38-64 6-47-29-110-68-136-32-21-105-38-196-11-109 32-95 127-94 142 2 26 22 43 23 51z"/><path fill="#e8e7e6" d="M221 504s-24-26-65 7c0 0 58-11 65 10v-17zm-105-33c43-26 66-12 66-12-46-2-53 35-53 35 27-19 62-25 93-14l1-14 2-14c-69-34-109 19-109 19zm-19-79s89-45 146 27a183 183 0 0 0-146-27zm361-221s123-34 176 71c0 0-64-87-176-71zm217 221s-3-104-52-110a68 68 0 0 0-25-46s27 11 31 30c1 0 54 13 46 126zM442 179S419 73 379 44c0 0 60 22 60 105l3 30zm-311-23s108-33 166 114a237 237 0 0 0-166-114zm0 28s38-5 51 44c-1 0 6-67-51-44zM31 392s47-145 120-174c0 0-94 1-120 174zm255-19c-32-12-109-51-93-100 0 0-35 51 35 80 0 0-41-11-57 1 0 0 67 10 107 32 4-5 9-10 15-12l-7-1zm112 31s-126-67-45-74c0 0-144-19 45 74zm0 0s-7 23-92-22c0 0 66 26 92 22zM273 20s13 25-20 163c0 0 79-121 20-163zm145 254s47-46 87-29a70 70 0 0 0-76-11c9-7 19-12 29-16 0 0-27-1-36 6 0 0-17-47-110-25 0-1 100-9 106 75zm149 72c9-14 15-29 17-46 8-50-48-35-48-35s43-4 38 32-67 70-67 70c5-22 5-47-17-59 0 0 16 40-11 108-6-120-80-114-80-114 62 15 72 119 72 131l-7 13s10 12 25-37l7 18c45-98 148-61 148-61-15-30-62-24-77-20zM405 183c-22-21-46-47-50-67-2-12-2-24-1-36 3-30-13-47-54-59 0 0 34 17 35 85-7-7-15-13-24-18 22 16 15 35 23 47s71 48 71 48z"/><path fill="#ebecec" d="M661 370c7 2 21 49 22 94-10-9-22-16-35-21 0 0 37 23 23 82 0 0-6-15-35-18l4 11-22-11s-83 13-102 35l8-65c-12 12-17 10-17 10l-10-60c-2-16 49-97 164-57z"/><path fill="#e8e7e6" d="M585 497a50 50 0 0 1 55 10c2 2 1 12 1 12l-22-11s-81 20-103 35c18-21 42-37 69-46zm-26-26c22-1 40-16 45-37 4-12 6-25 7-38 0 0 12 53 2 63a70 70 0 0 1 59 67s-33-50-114-43c-11 2-22 4-32 8v-13l33-7zm124-6s-20-69-47-68c0 0 40-17 47 68z"/><path fill="#45413e" d="M578 669a154 154 0 0 0-27 58c-1 7 0 16 1 24a83 83 0 0 0 33-24l2-4c6-17-9-54-9-54z"/></svg>