<?xml version="1.0" encoding="utf-8"?>
<!-- Generator: Adobe Illustrator 24.3.0, SVG Export Plug-In . SVG Version: 6.00 Build 0)  -->
<svg version="1.1" id="Layer_1" xmlns="http://www.w3.org/2000/svg" xmlns:xlink="http://www.w3.org/1999/xlink" x="0px" y="0px"
	 viewBox="0 0 54 54" style="enable-background:new 0 0 54 54;" xml:space="preserve">
<style type="text/css">
	.st0{fill:#1C3260;}
	.st1{fill:#8ED2F4;}
	.st2{fill:#A372B1;}
	.st3{fill:#732A87;}
	.st4{fill:#1D3260;}
	.st5{fill:#079B49;}
	.st6{fill:#FFFFFF;}
	.st7{fill:#086B38;}
</style>
<g>
	<g>
		<g>
			<path class="st0" d="M27.57,36.89h0.08c4.97-0.19,9.75-1.72,13.88-4.47c0.31-0.19,0.46-0.54,0.46-0.88v-2.14
				c0.15-9.71-5.58-18.54-14.53-22.33c-0.27-0.11-0.57-0.11-0.84,0c-8.95,3.82-14.68,12.62-14.53,22.33v2.14
				c0,0.34,0.15,0.65,0.42,0.88c4.28,2.87,9.33,4.43,14.53,4.47H27.57L27.57,36.89z"/>
			<g>
				<path class="st1" d="M17.06,25.69c0-0.04,6.96-10.21,6.96-10.21c0.08-0.11,0.15-0.19,0.27-0.27c0.5-0.34,1.15-0.19,1.49,0.27
					l3.4,4.97l1.26-1.8c0.08-0.11,0.15-0.19,0.27-0.27c0.5-0.34,1.15-0.23,1.49,0.27l4.86,7h2.52C37.59,13.34,27.84,9.55,27.04,9.17
					c0,0-4.05,1.45-7.65,5.77c-2.14,2.56-4.17,6.04-4.86,10.67L17.06,25.69z"/>
				<polygon class="st2" points="34.45,25.72 31.32,21.17 29.79,23.39 31.55,25.69 				"/>
				<polygon class="st3" points="29.79,23.39 28.19,25.69 31.55,25.69 				"/>
				<path class="st4" d="M25.59,25.69"/>
				<polygon class="st2" points="22.22,21.94 24.94,25.69 25.59,25.69 27.92,22.36 25.43,18.77 24.9,18 				"/>
				<polygon class="st3" points="22.22,21.94 19.66,25.69 24.94,25.69 				"/>
			</g>
			<g>
				<path class="st5" d="M27.88,33.18c0.15-0.34,0-0.73-0.34-0.88l-0.99-0.42c-0.11-0.04-0.23-0.11-0.34-0.19
					c-1.3-0.84-1.72-2.56-0.88-3.86h-6.35h-4.7c-0.04,0.54-0.04,1.07-0.04,1.61V31c2.26,1.41,4.7,2.45,7.26,3.06l0,0
					c1.95,0.42,3.67,0.69,5.47,0.73l0.88-1.53C27.84,33.22,27.88,33.18,27.88,33.18z"/>
				<path class="st5" d="M39.81,27.83h-9.79h-1.95l-0.88,1.07c-0.04,0.04-0.08,0.11-0.08,0.15c-0.15,0.34,0,0.73,0.34,0.88
					l0.99,0.42c0.08,0.04,0.19,0.08,0.27,0.11c1.34,0.76,1.8,2.48,1.03,3.82l-0.19,0.31c0.57-0.08,1.15-0.15,1.72-0.31
					c1.03-0.19,2.03-0.46,3.02-0.76c0.15-0.04,0.46-0.15,0.46-0.15c1.76-0.61,3.48-1.41,5.08-2.41v-1.57
					C39.88,28.9,39.84,28.36,39.81,27.83z"/>
				<path class="st6" d="M28.68,30.46c-0.08-0.04-0.15-0.08-0.27-0.11l-0.99-0.42c-0.34-0.15-0.5-0.54-0.34-0.88
					c0.04-0.08,0.04-0.11,0.08-0.15l0.88-1.07l0,0h-2.75l0,0c-0.84,1.3-0.42,3.06,0.88,3.86c0.11,0.08,0.23,0.11,0.34,0.19
					l0.99,0.42c0.34,0.15,0.5,0.54,0.34,0.88c0,0.04,0,0.04-0.04,0.08l-0.88,1.53c0.84,0,1.68-0.04,2.6-0.15l0.19-0.31
					C30.48,32.95,30.02,31.23,28.68,30.46z"/>
			</g>
			<polygon class="st7" points="32.62,31.31 35.79,31.31 34.19,29.47 			"/>
			<polygon class="st7" points="19.89,32.57 23.06,32.57 21.46,30.77 			"/>
			<polygon class="st7" points="18.36,28.86 16.75,30.66 19.93,30.66 			"/>
		</g>
	</g>
	<g>
		<g>
			<g>
				<g>
					<polygon class="st0" points="1.35,42.35 3.22,42.35 3.22,47.02 4.22,47.02 4.22,42.35 6.05,42.35 6.05,41.44 1.35,41.44 					
						"/>
					<path class="st0" d="M11.67,43.42c0-1.19-0.76-1.99-2.22-1.99h-1.8v5.58h0.99v-1.61h0.61c0.19,0,0.34,0,0.5-0.04l1.19,1.64
						h1.15l-1.41-1.91C11.36,44.8,11.67,44.19,11.67,43.42z M9.38,44.53H8.65v-2.18h0.73c0.92,0,1.22,0.46,1.22,1.07
						S10.29,44.53,9.38,44.53z"/>
					<path class="st0" d="M15.76,41.4l-2.64,5.62h1.03l0.5-1.11h2.41l0.5,1.11h1.07l-2.64-5.62H15.76z M15.03,45.14l0.84-1.91
						l0.84,1.91H15.03z"/>
					<rect x="20.23" y="41.44" class="st0" width="0.99" height="5.58"/>
					<polygon class="st0" points="24.4,41.44 23.41,41.44 23.41,47.02 27.04,47.02 27.04,46.14 24.4,46.14 					"/>
					<polygon class="st0" points="32.35,43.96 29.64,43.96 29.64,41.44 28.64,41.44 28.64,47.02 29.64,47.02 29.64,44.84 
						32.35,44.84 32.35,47.02 33.35,47.02 33.35,41.44 32.35,41.44 					"/>
					<polygon class="st0" points="35.53,47.02 39.16,47.02 39.16,46.14 36.52,46.14 36.52,44.8 38.93,44.8 38.93,43.92 36.52,43.92 
						36.52,42.35 39.16,42.35 39.16,41.44 35.53,41.44 					"/>
					<path class="st0" d="M43.21,41.4l-2.64,5.62h1.03l0.5-1.11h2.41l0.5,1.11h1.07l-2.64-5.62H43.21z M42.44,45.14l0.84-1.91
						l0.84,1.91H42.44z"/>
					<path class="st0" d="M49.67,41.44h-2.1v5.58h2.1c1.72,0,2.98-1.19,2.98-2.79C52.65,42.62,51.39,41.44,49.67,41.44z
						 M49.67,46.14h-1.11v-3.78h1.11c1.11,0,1.91,0.8,1.91,1.91C51.58,45.34,50.74,46.14,49.67,46.14z"/>
				</g>
			</g>
		</g>
	</g>
</g>
</svg>
